<mxfile host="app.diagrams.net" modified="2024-03-13T15:49:01.813Z" agent="Mozilla/5.0 (Windows NT 10.0; Win64; x64) AppleWebKit/537.36 (KHTML, like Gecko) Chrome/122.0.0.0 Safari/537.36" etag="MHUdFUQ6EIJqMEa_mXOx" version="24.0.5" type="github">
  <diagram id="C5RBs43oDa-KdzZeNtuy" name="Page-1">
    <mxGraphModel dx="1434" dy="780" grid="1" gridSize="10" guides="1" tooltips="1" connect="1" arrows="1" fold="1" page="1" pageScale="1" pageWidth="827" pageHeight="1169" math="0" shadow="0">
      <root>
        <mxCell id="WIyWlLk6GJQsqaUBKTNV-0" />
        <mxCell id="WIyWlLk6GJQsqaUBKTNV-1" parent="WIyWlLk6GJQsqaUBKTNV-0" />
        <mxCell id="5l3ZDkoXm8LcdsiTeHlB-2" value="" style="edgeStyle=orthogonalEdgeStyle;rounded=0;orthogonalLoop=1;jettySize=auto;html=1;" edge="1" parent="WIyWlLk6GJQsqaUBKTNV-1" source="5l3ZDkoXm8LcdsiTeHlB-0" target="5l3ZDkoXm8LcdsiTeHlB-1">
          <mxGeometry relative="1" as="geometry" />
        </mxCell>
        <mxCell id="5l3ZDkoXm8LcdsiTeHlB-0" value="Code to send microbit begins" style="strokeWidth=2;html=1;shape=mxgraph.flowchart.start_1;whiteSpace=wrap;" vertex="1" parent="WIyWlLk6GJQsqaUBKTNV-1">
          <mxGeometry x="364" y="40" width="100" height="60" as="geometry" />
        </mxCell>
        <mxCell id="5l3ZDkoXm8LcdsiTeHlB-1" value="Required imports are made" style="whiteSpace=wrap;html=1;strokeWidth=2;" vertex="1" parent="WIyWlLk6GJQsqaUBKTNV-1">
          <mxGeometry x="354" y="180" width="120" height="60" as="geometry" />
        </mxCell>
        <mxCell id="5l3ZDkoXm8LcdsiTeHlB-6" value="" style="edgeStyle=orthogonalEdgeStyle;rounded=0;orthogonalLoop=1;jettySize=auto;html=1;" edge="1" parent="WIyWlLk6GJQsqaUBKTNV-1" source="5l3ZDkoXm8LcdsiTeHlB-3" target="5l3ZDkoXm8LcdsiTeHlB-5">
          <mxGeometry relative="1" as="geometry" />
        </mxCell>
        <mxCell id="5l3ZDkoXm8LcdsiTeHlB-3" value="Connect to the firebase" style="strokeWidth=2;html=1;shape=mxgraph.flowchart.database;whiteSpace=wrap;" vertex="1" parent="WIyWlLk6GJQsqaUBKTNV-1">
          <mxGeometry x="350" y="300" width="130" height="100" as="geometry" />
        </mxCell>
        <mxCell id="5l3ZDkoXm8LcdsiTeHlB-4" style="edgeStyle=orthogonalEdgeStyle;rounded=0;orthogonalLoop=1;jettySize=auto;html=1;entryX=0.5;entryY=0;entryDx=0;entryDy=0;entryPerimeter=0;" edge="1" parent="WIyWlLk6GJQsqaUBKTNV-1" source="5l3ZDkoXm8LcdsiTeHlB-1" target="5l3ZDkoXm8LcdsiTeHlB-3">
          <mxGeometry relative="1" as="geometry" />
        </mxCell>
        <mxCell id="5l3ZDkoXm8LcdsiTeHlB-8" value="" style="edgeStyle=orthogonalEdgeStyle;rounded=0;orthogonalLoop=1;jettySize=auto;html=1;" edge="1" parent="WIyWlLk6GJQsqaUBKTNV-1" source="5l3ZDkoXm8LcdsiTeHlB-5" target="5l3ZDkoXm8LcdsiTeHlB-7">
          <mxGeometry relative="1" as="geometry" />
        </mxCell>
        <mxCell id="5l3ZDkoXm8LcdsiTeHlB-5" value="study_time child is referenced" style="whiteSpace=wrap;html=1;strokeWidth=2;" vertex="1" parent="WIyWlLk6GJQsqaUBKTNV-1">
          <mxGeometry x="355" y="500" width="120" height="60" as="geometry" />
        </mxCell>
        <mxCell id="5l3ZDkoXm8LcdsiTeHlB-10" value="" style="edgeStyle=orthogonalEdgeStyle;rounded=0;orthogonalLoop=1;jettySize=auto;html=1;" edge="1" parent="WIyWlLk6GJQsqaUBKTNV-1" source="5l3ZDkoXm8LcdsiTeHlB-7" target="5l3ZDkoXm8LcdsiTeHlB-9">
          <mxGeometry relative="1" as="geometry" />
        </mxCell>
        <mxCell id="5l3ZDkoXm8LcdsiTeHlB-7" value="While loop" style="rhombus;whiteSpace=wrap;html=1;strokeWidth=2;" vertex="1" parent="WIyWlLk6GJQsqaUBKTNV-1">
          <mxGeometry x="375" y="630" width="80" height="80" as="geometry" />
        </mxCell>
        <mxCell id="5l3ZDkoXm8LcdsiTeHlB-12" value="" style="edgeStyle=orthogonalEdgeStyle;rounded=0;orthogonalLoop=1;jettySize=auto;html=1;" edge="1" parent="WIyWlLk6GJQsqaUBKTNV-1" source="5l3ZDkoXm8LcdsiTeHlB-9" target="5l3ZDkoXm8LcdsiTeHlB-11">
          <mxGeometry relative="1" as="geometry" />
        </mxCell>
        <mxCell id="5l3ZDkoXm8LcdsiTeHlB-9" value="If mb inputs" style="rhombus;whiteSpace=wrap;html=1;strokeWidth=2;" vertex="1" parent="WIyWlLk6GJQsqaUBKTNV-1">
          <mxGeometry x="375" y="790" width="80" height="80" as="geometry" />
        </mxCell>
        <mxCell id="5l3ZDkoXm8LcdsiTeHlB-16" value="" style="edgeStyle=orthogonalEdgeStyle;rounded=0;orthogonalLoop=1;jettySize=auto;html=1;" edge="1" parent="WIyWlLk6GJQsqaUBKTNV-1" source="5l3ZDkoXm8LcdsiTeHlB-11" target="5l3ZDkoXm8LcdsiTeHlB-15">
          <mxGeometry relative="1" as="geometry" />
        </mxCell>
        <mxCell id="5l3ZDkoXm8LcdsiTeHlB-11" value="Every 5 seconds" style="whiteSpace=wrap;html=1;strokeWidth=2;" vertex="1" parent="WIyWlLk6GJQsqaUBKTNV-1">
          <mxGeometry x="355" y="960" width="120" height="60" as="geometry" />
        </mxCell>
        <mxCell id="5l3ZDkoXm8LcdsiTeHlB-18" value="" style="edgeStyle=orthogonalEdgeStyle;rounded=0;orthogonalLoop=1;jettySize=auto;html=1;" edge="1" parent="WIyWlLk6GJQsqaUBKTNV-1" source="5l3ZDkoXm8LcdsiTeHlB-15">
          <mxGeometry relative="1" as="geometry">
            <mxPoint x="415" y="1240" as="targetPoint" />
          </mxGeometry>
        </mxCell>
        <mxCell id="5l3ZDkoXm8LcdsiTeHlB-15" value="Mb sends 1 and/or 0 to thonny" style="whiteSpace=wrap;html=1;strokeWidth=2;" vertex="1" parent="WIyWlLk6GJQsqaUBKTNV-1">
          <mxGeometry x="355" y="1100" width="120" height="60" as="geometry" />
        </mxCell>
        <mxCell id="5l3ZDkoXm8LcdsiTeHlB-21" value="" style="edgeStyle=orthogonalEdgeStyle;rounded=0;orthogonalLoop=1;jettySize=auto;html=1;" edge="1" parent="WIyWlLk6GJQsqaUBKTNV-1" source="5l3ZDkoXm8LcdsiTeHlB-19" target="5l3ZDkoXm8LcdsiTeHlB-20">
          <mxGeometry relative="1" as="geometry" />
        </mxCell>
        <mxCell id="5l3ZDkoXm8LcdsiTeHlB-23" value="" style="edgeStyle=orthogonalEdgeStyle;rounded=0;orthogonalLoop=1;jettySize=auto;html=1;" edge="1" parent="WIyWlLk6GJQsqaUBKTNV-1" source="5l3ZDkoXm8LcdsiTeHlB-19" target="5l3ZDkoXm8LcdsiTeHlB-22">
          <mxGeometry relative="1" as="geometry" />
        </mxCell>
        <mxCell id="5l3ZDkoXm8LcdsiTeHlB-19" value="If mb sends 1" style="rhombus;whiteSpace=wrap;html=1;" vertex="1" parent="WIyWlLk6GJQsqaUBKTNV-1">
          <mxGeometry x="375" y="1240" width="80" height="80" as="geometry" />
        </mxCell>
        <mxCell id="5l3ZDkoXm8LcdsiTeHlB-20" value="1 minutes is added to the total time spent studying&amp;nbsp;" style="whiteSpace=wrap;html=1;" vertex="1" parent="WIyWlLk6GJQsqaUBKTNV-1">
          <mxGeometry x="515" y="1250" width="120" height="60" as="geometry" />
        </mxCell>
        <mxCell id="5l3ZDkoXm8LcdsiTeHlB-25" value="" style="edgeStyle=orthogonalEdgeStyle;rounded=0;orthogonalLoop=1;jettySize=auto;html=1;" edge="1" parent="WIyWlLk6GJQsqaUBKTNV-1" source="5l3ZDkoXm8LcdsiTeHlB-22" target="5l3ZDkoXm8LcdsiTeHlB-24">
          <mxGeometry relative="1" as="geometry" />
        </mxCell>
        <mxCell id="5l3ZDkoXm8LcdsiTeHlB-26" style="edgeStyle=orthogonalEdgeStyle;rounded=0;orthogonalLoop=1;jettySize=auto;html=1;" edge="1" parent="WIyWlLk6GJQsqaUBKTNV-1" source="5l3ZDkoXm8LcdsiTeHlB-22">
          <mxGeometry relative="1" as="geometry">
            <mxPoint x="415" y="1560" as="targetPoint" />
          </mxGeometry>
        </mxCell>
        <mxCell id="5l3ZDkoXm8LcdsiTeHlB-22" value="If mb sends 0" style="rhombus;whiteSpace=wrap;html=1;" vertex="1" parent="WIyWlLk6GJQsqaUBKTNV-1">
          <mxGeometry x="375" y="1400" width="80" height="80" as="geometry" />
        </mxCell>
        <mxCell id="5l3ZDkoXm8LcdsiTeHlB-24" value="1 minute is added to the time wasted" style="whiteSpace=wrap;html=1;" vertex="1" parent="WIyWlLk6GJQsqaUBKTNV-1">
          <mxGeometry x="515" y="1410" width="120" height="60" as="geometry" />
        </mxCell>
        <mxCell id="5l3ZDkoXm8LcdsiTeHlB-29" value="" style="edgeStyle=orthogonalEdgeStyle;rounded=0;orthogonalLoop=1;jettySize=auto;html=1;" edge="1" parent="WIyWlLk6GJQsqaUBKTNV-1" source="5l3ZDkoXm8LcdsiTeHlB-27" target="5l3ZDkoXm8LcdsiTeHlB-28">
          <mxGeometry relative="1" as="geometry" />
        </mxCell>
        <mxCell id="5l3ZDkoXm8LcdsiTeHlB-27" value="If user presses Button B, mb sends 2 to the&amp;nbsp;" style="html=1;strokeWidth=2;shape=manualInput;whiteSpace=wrap;rounded=1;size=26;arcSize=11;" vertex="1" parent="WIyWlLk6GJQsqaUBKTNV-1">
          <mxGeometry x="364" y="1550" width="100" height="110" as="geometry" />
        </mxCell>
        <mxCell id="5l3ZDkoXm8LcdsiTeHlB-28" value="Code breaks and the study session has ended" style="whiteSpace=wrap;html=1;strokeWidth=2;rounded=1;arcSize=11;" vertex="1" parent="WIyWlLk6GJQsqaUBKTNV-1">
          <mxGeometry x="534" y="1575" width="120" height="60" as="geometry" />
        </mxCell>
        <mxCell id="5l3ZDkoXm8LcdsiTeHlB-30" value="Info is sent to the firebase using time.time() format" style="strokeWidth=2;html=1;shape=mxgraph.flowchart.database;whiteSpace=wrap;" vertex="1" parent="WIyWlLk6GJQsqaUBKTNV-1">
          <mxGeometry x="530" y="1694" width="130" height="96" as="geometry" />
        </mxCell>
        <mxCell id="5l3ZDkoXm8LcdsiTeHlB-31" style="edgeStyle=orthogonalEdgeStyle;rounded=0;orthogonalLoop=1;jettySize=auto;html=1;entryX=0.5;entryY=0;entryDx=0;entryDy=0;entryPerimeter=0;" edge="1" parent="WIyWlLk6GJQsqaUBKTNV-1" source="5l3ZDkoXm8LcdsiTeHlB-28" target="5l3ZDkoXm8LcdsiTeHlB-30">
          <mxGeometry relative="1" as="geometry" />
        </mxCell>
      </root>
    </mxGraphModel>
  </diagram>
</mxfile>
